<svg width="1440" height="800" viewBox="0 0 1440 800" fill="none" xmlns="http://www.w3.org/2000/svg">
  <path d="M0 0L48 26.7C96 53.3 192 107 288 133.3C384 160 480 160 576 144C672 128 768 96 864 101.3C960 107 1056 149 1152 165.3C1248 181 1344 171 1392 165.3L1440 160V800H1392C1344 800 1248 800 1152 800C1056 800 960 800 864 800C768 800 672 800 576 800C480 800 384 800 288 800C192 800 96 800 48 800H0V0Z" fill="white" fill-opacity="0.1"/>
  <path d="M0 200L48 213.3C96 227 192 253 288 240C384 227 480 173 576 165.3C672 157 768 195 864 224C960 253 1056 275 1152 261.3C1248 248 1344 200 1392 176L1440 152V800H1392C1344 800 1248 800 1152 800C1056 800 960 800 864 800C768 800 672 800 576 800C480 800 384 800 288 800C192 800 96 800 48 800H0V200Z" fill="white" fill-opacity="0.1"/>
  <path d="M0 400L48 384C96 368 192 336 288 325.3C384 315 480 325 576 362.7C672 400 768 464 864 469.3C960 475 1056 421 1152 384C1248 347 1344 325 1392 314.7L1440 304V800H1392C1344 800 1248 800 1152 800C1056 800 960 800 864 800C768 800 672 800 576 800C480 800 384 800 288 800C192 800 96 800 48 800H0V400Z" fill="white" fill-opacity="0.1"/>
</svg>

